<svg xmlns="http://www.w3.org/2000/svg" viewBox="0 0 400 300">
  <defs>
    <linearGradient id="sky10a" x1="0" y1="0" x2="0" y2="1">
      <stop offset="0%" stop-color="#8AB8D8"/>
      <stop offset="100%" stop-color="#C0DDF0"/>
    </linearGradient>
    <linearGradient id="sky10b" x1="0" y1="0" x2="0" y2="1">
      <stop offset="0%" stop-color="#5A9FD4"/>
      <stop offset="100%" stop-color="#A8D0F0"/>
    </linearGradient>
    <linearGradient id="grass10" x1="0" y1="0" x2="0" y2="1">
      <stop offset="0%" stop-color="#5A8A3E"/>
      <stop offset="100%" stop-color="#2D5016"/>
    </linearGradient>
    <clipPath id="leftHalf10">
      <rect x="0" y="0" width="200" height="300"/>
    </clipPath>
    <clipPath id="rightHalf10">
      <rect x="200" y="0" width="200" height="300"/>
    </clipPath>
  </defs>
  <g clip-path="url(#leftHalf10)">
    <rect width="200" height="300" fill="url(#sky10a)"/>
    <rect x="0" y="215" width="200" height="85" fill="url(#grass10)"/>
    <rect x="110" y="110" width="85" height="105" fill="#F5F2EE" opacity="0.6"/>
    <polygon points="110,110 152,75 195,110" fill="#6B4226" opacity="0.6"/>
    <rect x="55" y="60" width="22" height="155" fill="#6B4226"/>
    <line x1="66" y1="100" x2="20" y2="70" stroke="#6B4226" stroke-width="5" stroke-linecap="round"/>
    <line x1="66" y1="90" x2="130" y2="60" stroke="#6B4226" stroke-width="5" stroke-linecap="round"/>
    <line x1="66" y1="120" x2="10" y2="110" stroke="#6B4226" stroke-width="4" stroke-linecap="round"/>
    <line x1="66" y1="110" x2="140" y2="90" stroke="#6B4226" stroke-width="4" stroke-linecap="round"/>
    <line x1="66" y1="80" x2="75" y2="20" stroke="#6B4226" stroke-width="5" stroke-linecap="round"/>
    <line x1="66" y1="130" x2="150" y2="120" stroke="#6B4226" stroke-width="3" stroke-linecap="round"/>
    <line x1="66" y1="140" x2="15" y2="140" stroke="#6B4226" stroke-width="3" stroke-linecap="round"/>
    <ellipse cx="66" cy="40" rx="75" ry="50" fill="#2D5016"/>
    <ellipse cx="20" cy="60" rx="35" ry="30" fill="#1A3009" opacity="0.8"/>
    <ellipse cx="120" cy="55" rx="35" ry="28" fill="#2D5016" opacity="0.8"/>
    <ellipse cx="66" cy="15" rx="40" ry="22" fill="#3D6B1E" opacity="0.7"/>
    <ellipse cx="10" cy="105" rx="18" ry="12" fill="#2D5016" opacity="0.6"/>
    <ellipse cx="140" cy="85" rx="15" ry="10" fill="#2D5016" opacity="0.6"/>
    <ellipse cx="145" cy="115" rx="12" ry="8" fill="#3D6B1E" opacity="0.5"/>
    <ellipse cx="15" cy="135" rx="14" ry="10" fill="#2D5016" opacity="0.5"/>
    <g fill="#8B6B2F" opacity="0.4">
      <circle cx="30" cy="220" r="3"/>
      <circle cx="80" cy="225" r="2.5"/>
      <circle cx="120" cy="222" r="2"/>
      <circle cx="150" cy="218" r="3"/>
    </g>
  </g>
  <g clip-path="url(#rightHalf10)">
    <rect x="200" y="0" width="200" height="300" fill="url(#sky10b)"/>
    <rect x="200" y="215" width="200" height="85" fill="url(#grass10)"/>
    <rect x="200" y="215" width="200" height="85" fill="#5A8A3E" opacity="0.1"/>
    <rect x="300" y="110" width="90" height="105" fill="#F5F2EE"/>
    <polygon points="300,110 345,70 390,110" fill="#6B4226"/>
    <rect x="315" y="130" width="18" height="22" fill="#87CEEB" opacity="0.5"/>
    <rect x="350" y="130" width="18" height="22" fill="#87CEEB" opacity="0.5"/>
    <rect x="332" y="175" width="18" height="40" fill="#6B4226"/>
    <rect x="245" y="80" width="22" height="135" fill="#6B4226"/>
    <line x1="256" y1="110" x2="220" y2="85" stroke="#6B4226" stroke-width="5" stroke-linecap="round"/>
    <line x1="256" y1="105" x2="295" y2="80" stroke="#6B4226" stroke-width="5" stroke-linecap="round"/>
    <line x1="256" y1="95" x2="260" y2="55" stroke="#6B4226" stroke-width="5" stroke-linecap="round"/>
    <ellipse cx="256" cy="55" rx="55" ry="42" fill="#2D5016"/>
    <ellipse cx="256" cy="40" rx="42" ry="30" fill="#3D6B1E" opacity="0.7"/>
    <ellipse cx="248" cy="35" rx="25" ry="18" fill="#4A8A2E" opacity="0.4"/>
    <ellipse cx="256" cy="215" rx="18" ry="5" fill="#5A3620"/>
  </g>
  <line x1="200" y1="0" x2="200" y2="300" stroke="white" stroke-width="3"/>
  <g transform="translate(50, 270)">
    <rect x="-35" y="-14" width="70" height="22" rx="4" fill="#6B4226" opacity="0.85"/>
    <text x="0" y="2" font-family="Arial, sans-serif" font-size="13" font-weight="bold" fill="#F5F2EE" text-anchor="middle">BEFORE</text>
  </g>
  <g transform="translate(340, 270)">
    <rect x="-30" y="-14" width="60" height="22" rx="4" fill="#2D5016" opacity="0.85"/>
    <text x="0" y="2" font-family="Arial, sans-serif" font-size="13" font-weight="bold" fill="#F5F2EE" text-anchor="middle">AFTER</text>
  </g>
  <g opacity="0.8">
    <circle cx="200" cy="140" r="16" fill="#D4A843"/>
    <polygon points="193,140 207,140 200,150" fill="white"/>
    <rect x="197" y="128" width="6" height="15" fill="white"/>
  </g>
</svg>