<svg xmlns="http://www.w3.org/2000/svg" viewBox="0 0 400 300">
  <defs>
    <linearGradient id="sky7" x1="0" y1="0" x2="0" y2="1">
      <stop offset="0%" stop-color="#5A9FD4"/>
      <stop offset="100%" stop-color="#A8D0F0"/>
    </linearGradient>
    <linearGradient id="ground7" x1="0" y1="0" x2="0" y2="1">
      <stop offset="0%" stop-color="#B8923A"/>
      <stop offset="50%" stop-color="#8B7355"/>
      <stop offset="100%" stop-color="#6B5B3E"/>
    </linearGradient>
    <linearGradient id="grass7edge" x1="0" y1="0" x2="0" y2="1">
      <stop offset="0%" stop-color="#4A7A2E"/>
      <stop offset="100%" stop-color="#2D5016"/>
    </linearGradient>
  </defs>
  <rect width="400" height="300" fill="url(#sky7)"/>
  <ellipse cx="200" cy="35" rx="60" ry="18" fill="white" opacity="0.6"/>
  <ellipse cx="80" cy="50" rx="40" ry="14" fill="white" opacity="0.5"/>
  <g opacity="0.9">
    <ellipse cx="-5" cy="110" rx="40" ry="60" fill="#2D5016"/>
    <rect x="-8" y="140" width="10" height="60" fill="#6B4226"/>
    <ellipse cx="30" cy="100" rx="35" ry="55" fill="#1A3009"/>
    <rect x="27" y="130" width="8" height="70" fill="#5A3620"/>
    <ellipse cx="55" cy="115" rx="30" ry="45" fill="#2D5016"/>
    <rect x="52" y="140" width="8" height="60" fill="#6B4226"/>
  </g>
  <g opacity="0.9">
    <ellipse cx="350" cy="105" rx="35" ry="55" fill="#2D5016"/>
    <rect x="347" y="135" width="8" height="65" fill="#6B4226"/>
    <ellipse cx="380" cy="110" rx="30" ry="50" fill="#1A3009"/>
    <rect x="377" y="135" width="8" height="65" fill="#5A3620"/>
    <ellipse cx="408" cy="100" rx="35" ry="55" fill="#2D5016"/>
  </g>
  <rect x="70" y="190" width="260" height="110" fill="url(#ground7)"/>
  <rect x="0" y="195" width="75" height="105" fill="url(#grass7edge)"/>
  <rect x="325" y="195" width="75" height="105" fill="url(#grass7edge)"/>
  <path d="M90,200 Q200,220 320,195" fill="none" stroke="#7A6A4A" stroke-width="6" opacity="0.4"/>
  <path d="M95,210 Q200,230 315,205" fill="none" stroke="#7A6A4A" stroke-width="6" opacity="0.4"/>
  <ellipse cx="150" cy="230" rx="8" ry="4" fill="#6B4226"/>
  <rect x="143" y="228" width="14" height="6" fill="#6B4226"/>
  <ellipse cx="250" cy="225" rx="6" ry="3" fill="#6B4226"/>
  <rect x="245" y="223" width="10" height="5" fill="#6B4226"/>
  <g transform="translate(180, 175)">
    <rect x="-25" y="25" width="60" height="15" fill="#333" rx="5"/>
    <rect x="-15" y="10" width="40" height="18" fill="#D4A843" rx="3"/>
    <rect x="10" y="-5" width="18" height="18" fill="#D4A843" rx="2"/>
    <rect x="12" y="-3" width="12" height="10" fill="#87CEEB" opacity="0.5" rx="1"/>
    <line x1="-5" y1="10" x2="-40" y2="-15" stroke="#D4A843" stroke-width="6" stroke-linecap="round"/>
    <line x1="-40" y1="-15" x2="-55" y2="15" stroke="#D4A843" stroke-width="5" stroke-linecap="round"/>
    <path d="M-55,15 L-65,10 L-65,22 L-50,22 Z" fill="#888"/>
  </g>
  <g transform="translate(100, 240)">
    <ellipse cx="0" cy="0" rx="8" ry="6" fill="#6B4226"/>
    <ellipse cx="15" cy="-2" rx="8" ry="6" fill="#5A3620"/>
    <ellipse cx="8" cy="-8" rx="8" ry="6" fill="#6B4226"/>
    <ellipse cx="-5" cy="5" rx="7" ry="5" fill="#5A3620"/>
    <circle cx="0" cy="0" r="5" fill="#D4A843" opacity="0.5"/>
    <circle cx="15" cy="-2" r="5" fill="#D4A843" opacity="0.4"/>
    <circle cx="8" cy="-8" r="5" fill="#D4A843" opacity="0.5"/>
  </g>
  <g fill="#6B4226" opacity="0.4">
    <rect x="140" y="250" width="8" height="2" rx="1" transform="rotate(20,144,251)"/>
    <rect x="200" y="245" width="6" height="2" rx="1" transform="rotate(-15,203,246)"/>
    <rect x="270" y="255" width="7" height="2" rx="1" transform="rotate(35,273,256)"/>
    <rect x="230" y="260" width="5" height="2" rx="1" transform="rotate(-25,232,261)"/>
  </g>
</svg>